<svg width="346" height="231" viewBox="0 0 346 231" fill="none" xmlns="http://www.w3.org/2000/svg">
<rect width="346" height="231" fill="white"/>
<g clip-path="url(#clip0_38_4949)">
<path fill-rule="evenodd" clip-rule="evenodd" d="M127.759 84.5182H123.696C122.854 84.5182 122.172 85.2004 122.172 86.042C122.172 86.8836 122.854 87.5658 123.696 87.5658H126.246V90.0953C126.246 90.9369 126.928 91.6192 127.769 91.6192C128.611 91.6192 129.293 90.9369 129.293 90.0953V86.0319C129.293 85.6269 129.131 85.2387 128.843 84.9543C128.554 84.6698 128.164 84.5128 127.759 84.5182V84.5182Z" fill="#06033A"/>
<path fill-rule="evenodd" clip-rule="evenodd" d="M122.792 130.73L118.982 124.137C118.708 123.667 118.206 123.377 117.662 123.375H110.043C109.501 123.379 109.003 123.669 108.732 124.137L104.923 130.73C104.648 131.197 104.648 131.777 104.923 132.244L108.732 138.847C109.003 139.316 109.501 139.606 110.043 139.609H117.662C118.206 139.607 118.708 139.317 118.982 138.847L122.792 132.244C123.056 131.774 123.056 131.2 122.792 130.73V130.73ZM116.778 136.521H110.916L107.99 131.441L110.916 126.362H116.778L119.714 131.441L116.778 136.521ZM113.852 110.291C118.722 110.291 122.67 106.343 122.67 101.473C122.67 96.6031 118.722 92.6553 113.852 92.6553C108.982 92.6553 105.034 96.6031 105.034 101.473C105.034 106.343 108.982 110.291 113.852 110.291V110.291ZM113.852 95.6826C116.195 95.6785 118.31 97.0867 119.209 99.2501C120.108 101.414 119.616 103.906 117.96 105.564C116.305 107.222 113.814 107.719 111.649 106.824C109.484 105.928 108.072 103.816 108.072 101.473C108.077 98.2813 110.66 95.6937 113.852 95.6826Z" fill="#F22F46"/>
<path fill-rule="evenodd" clip-rule="evenodd" d="M127.759 96.1906C126.922 96.1962 126.246 96.8768 126.246 97.7144V105.293C126.246 106.134 126.928 106.817 127.769 106.817C128.611 106.817 129.293 106.134 129.293 105.293V97.6839C129.288 97.2824 129.123 96.8996 128.836 96.6195C128.548 96.3394 128.161 96.1851 127.759 96.1906V96.1906ZM127.759 111.337C126.923 111.337 126.246 112.015 126.246 112.851V115.401H123.696C122.854 115.401 122.172 116.083 122.172 116.925C122.172 117.766 122.854 118.448 123.696 118.448H126.246V120.978C126.246 121.819 126.928 122.502 127.769 122.502C128.611 122.502 129.293 121.819 129.293 120.978V112.851C129.296 112.445 129.135 112.055 128.846 111.77C128.557 111.485 128.165 111.329 127.759 111.337V111.337ZM109.667 115.401C108.825 115.401 108.143 116.083 108.143 116.925C108.143 117.766 108.825 118.448 109.667 118.448H116.676C117.518 118.448 118.2 117.766 118.2 116.925C118.2 116.083 117.518 115.401 116.676 115.401H109.667ZM127.759 126.433C126.922 126.439 126.246 127.119 126.246 127.957V134.926C126.246 135.767 126.928 136.45 127.769 136.45C128.611 136.45 129.293 135.767 129.293 134.926V127.957C129.296 127.55 129.135 127.159 128.846 126.873C128.558 126.586 128.166 126.428 127.759 126.433ZM127.759 140.391C126.923 140.391 126.246 141.069 126.246 141.905V144.455H123.696C122.854 144.455 122.172 145.137 122.172 145.979C122.172 146.82 122.854 147.502 123.696 147.502H127.759C128.164 147.502 128.552 147.34 128.837 147.052C129.121 146.764 129.278 146.373 129.273 145.968V141.905C129.273 141.069 128.595 140.391 127.759 140.391ZM116.676 144.455H109.667C108.825 144.455 108.143 145.137 108.143 145.979C108.143 146.82 108.825 147.502 109.667 147.502H116.676C117.518 147.502 118.2 146.82 118.2 145.979C118.2 145.137 117.518 144.455 116.676 144.455V144.455Z" fill="#06033A"/>
<path fill-rule="evenodd" clip-rule="evenodd" d="M92.478 103.373L87.3276 95.2457C86.5825 94.0691 85.2867 93.356 83.8939 93.3562C82.5012 93.356 81.2054 94.0691 80.4603 95.2457L75.2996 103.373C74.507 104.624 74.4584 106.208 75.1729 107.506C75.8874 108.804 77.2517 109.61 78.7333 109.61H89.0444C90.5262 109.607 91.8887 108.797 92.6 107.497C93.3303 106.207 93.2833 104.618 92.478 103.373V103.373ZM89.9485 106.044C89.7681 106.374 89.4203 106.577 89.0444 106.573H78.7333C78.3574 106.577 78.0096 106.374 77.8292 106.044C77.6477 105.73 77.6477 105.343 77.8292 105.029L82.9796 96.9016C83.1638 96.598 83.4931 96.4126 83.8482 96.4126C84.2033 96.4126 84.5326 96.598 84.7168 96.9016L89.8774 105.029C90.0814 105.33 90.1085 105.718 89.9485 106.044V106.044ZM90.365 123.507H77.4634C77.062 123.507 76.677 123.667 76.3931 123.951C76.1093 124.235 75.9498 124.62 75.9498 125.021V137.841C75.9498 138.677 76.6275 139.355 77.4634 139.355H90.365C91.1811 139.328 91.8283 138.658 91.8279 137.841V125.021C91.8283 124.204 91.1811 123.535 90.365 123.507ZM88.8006 136.348H78.9873V126.535H88.8006V136.348Z" fill="#F22F46"/>
<path fill-rule="evenodd" clip-rule="evenodd" d="M69.2247 91.6089C70.0606 91.6089 70.7383 90.9312 70.7383 90.0953V87.5454H73.2882C74.1297 87.5454 74.812 86.8632 74.812 86.0216C74.812 85.18 74.1297 84.4978 73.2882 84.4978H69.2247C68.8197 84.4978 68.4316 84.66 68.1471 84.9483C67.8627 85.2366 67.7056 85.6268 67.711 86.0318V90.0953C67.711 90.4967 67.8705 90.8817 68.1544 91.1656C68.4382 91.4494 68.8232 91.6089 69.2247 91.6089ZM80.3586 87.5454H87.4698C88.3113 87.5454 88.9936 86.8632 88.9936 86.0216C88.9936 85.18 88.3113 84.4978 87.4698 84.4978H80.3586C79.5171 84.4978 78.8348 85.18 78.8348 86.0216C78.8348 86.8632 79.5171 87.5454 80.3586 87.5454ZM69.2247 106.776C70.0606 106.776 70.7383 106.098 70.7383 105.262V97.6838C70.7383 96.8423 70.0561 96.16 69.2145 96.16C68.3729 96.16 67.6907 96.8423 67.6907 97.6838V105.262C67.6879 105.668 67.8493 106.058 68.1381 106.343C68.427 106.628 68.8189 106.784 69.2247 106.776V106.776ZM102.616 84.5181H94.4894C93.6479 84.5181 92.9656 85.2004 92.9656 86.0419C92.9656 86.8835 93.6479 87.5657 94.4894 87.5657H97.0393V90.0953C97.0393 90.9368 97.7215 91.6191 98.5631 91.6191C99.4047 91.6191 100.087 90.9368 100.087 90.0953V87.5454H102.627C103.468 87.5454 104.15 86.8632 104.15 86.0216C104.15 85.18 103.468 84.4978 102.627 84.4978L102.616 84.5181ZM109.667 87.5454H116.676C117.518 87.5454 118.2 86.8632 118.2 86.0216C118.2 85.18 117.518 84.4978 116.676 84.4978H109.667C108.825 84.4978 108.143 85.18 108.143 86.0216C108.143 86.8632 108.825 87.5454 109.667 87.5454V87.5454ZM73.2882 115.401H70.7383V112.851C70.7383 112.009 70.0561 111.327 69.2145 111.327C68.3729 111.327 67.6907 112.009 67.6907 112.851V120.978C67.6907 121.819 68.3729 122.502 69.2145 122.502C70.0561 122.502 70.7383 121.819 70.7383 120.978V118.428H73.2882C74.1297 118.428 74.812 117.746 74.812 116.904C74.812 116.063 74.1297 115.38 73.2882 115.38V115.401ZM87.4291 118.428C88.2707 118.428 88.9529 117.746 88.9529 116.904C88.9529 116.063 88.2707 115.38 87.4291 115.38H80.318C79.4764 115.38 78.7942 116.063 78.7942 116.904C78.7942 117.746 79.4764 118.428 80.318 118.428H87.4291ZM87.4291 144.455H80.318C79.4764 144.455 78.7942 145.137 78.7942 145.978C78.7942 146.82 79.4764 147.502 80.318 147.502H87.4291C88.2707 147.502 88.9529 146.82 88.9529 145.978C88.9529 145.137 88.2707 144.455 87.4291 144.455ZM73.2882 144.455H70.7383V141.905C70.7383 141.063 70.0561 140.381 69.2145 140.381C68.3729 140.381 67.6907 141.063 67.6907 141.905V145.968C67.6907 146.804 68.3684 147.482 69.2044 147.482H73.2679C74.1094 147.482 74.7917 146.8 74.7917 145.958C74.7917 145.117 74.1094 144.434 73.2679 144.434L73.2882 144.455ZM69.2247 136.439C70.0606 136.439 70.7383 135.762 70.7383 134.926V127.957C70.7383 127.115 70.0561 126.433 69.2145 126.433C68.3729 126.433 67.6907 127.115 67.6907 127.957V134.926C67.6879 135.332 67.8493 135.721 68.1381 136.006C68.427 136.291 68.8189 136.448 69.2247 136.439V136.439ZM98.5529 106.776C98.9561 106.779 99.3438 106.62 99.6298 106.336C99.9159 106.052 100.077 105.665 100.077 105.262V97.6838C100.077 96.8423 99.3945 96.16 98.5529 96.16C97.7114 96.16 97.0291 96.8423 97.0291 97.6838V105.262C97.0291 105.665 97.19 106.052 97.476 106.336C97.7621 106.62 98.1497 106.779 98.5529 106.776ZM102.616 115.401H100.077V112.851C100.077 112.009 99.3945 111.327 98.5529 111.327C97.7114 111.327 97.0291 112.009 97.0291 112.851V115.401H94.4894C93.6479 115.401 92.9656 116.083 92.9656 116.924C92.9656 117.766 93.6479 118.448 94.4894 118.448H97.0393V120.978C97.0393 121.819 97.7215 122.502 98.5631 122.502C99.4047 122.502 100.087 121.819 100.087 120.978V118.428H102.627C103.468 118.428 104.15 117.746 104.15 116.904C104.15 116.063 103.468 115.38 102.627 115.38L102.616 115.401ZM102.616 144.455H100.077V141.905C100.077 141.063 99.3945 140.381 98.5529 140.381C97.7114 140.381 97.0291 141.063 97.0291 141.905V144.455H94.4894C93.6479 144.455 92.9656 145.137 92.9656 145.978C92.9656 146.82 93.6479 147.502 94.4894 147.502H102.616C103.458 147.502 104.14 146.82 104.14 145.978C104.14 145.137 103.458 144.455 102.616 144.455ZM98.5529 136.439C98.9561 136.442 99.3438 136.284 99.6298 136C99.9159 135.716 100.077 135.329 100.077 134.926V127.957C100.077 127.115 99.3945 126.433 98.5529 126.433C97.7114 126.433 97.0291 127.115 97.0291 127.957V134.926C97.0291 135.329 97.19 135.716 97.476 136C97.7621 136.284 98.1497 136.442 98.5529 136.439V136.439Z" fill="#06033A"/>
</g>
<g clip-path="url(#clip1_38_4949)">
<path d="M155.568 100.929H162.794C163.826 100.929 164.548 100.103 164.548 99.1742C164.548 98.8646 164.445 98.5549 164.239 98.2452L160.626 92.5678C160.11 91.742 158.974 91.5355 158.148 92.0517C157.942 92.1549 157.736 92.3613 157.632 92.5678L154.019 98.2452C153.503 99.071 153.71 100.206 154.536 100.723C154.845 100.826 155.258 100.929 155.568 100.929V100.929Z" fill="white"/>
<path d="M159.181 115.174C161.918 115.174 164.136 112.956 164.136 110.219C164.136 107.483 161.918 105.264 159.181 105.264C156.445 105.264 154.226 107.483 154.226 110.219C154.226 112.956 156.445 115.174 159.181 115.174Z" fill="white"/>
<path d="M168.781 105.781H177.761V114.761H168.781V105.781ZM165.994 131.381C172.497 131.381 177.761 126.116 177.761 119.613H154.123C154.123 126.116 159.387 131.381 165.994 131.381V131.381Z" fill="white"/>
<path d="M173.323 101.239C176.117 101.239 178.381 98.9745 178.381 96.181C178.381 93.3876 176.117 91.123 173.323 91.123C170.53 91.123 168.265 93.3876 168.265 96.181C168.265 98.9745 170.53 101.239 173.323 101.239Z" fill="white"/>
<path fill-rule="evenodd" clip-rule="evenodd" d="M197.994 102.477C197.89 99.2774 196.548 96.1806 194.174 93.9097L187.774 87.5097C185.503 85.2387 182.406 84 179.206 84H147V138.916L162.071 147.69H185.916C192.626 147.69 197.994 142.323 197.994 135.613V102.477ZM182.819 131.897C182.819 134.271 180.961 136.232 178.587 136.232H149.684V86.6839H178.484C180.858 86.6839 182.819 88.6452 182.819 91.0194V131.897Z" fill="#06033A"/>
<path fill-rule="evenodd" clip-rule="evenodd" d="M155.568 101.961H162.794C163.826 101.961 164.755 101.445 165.271 100.516C165.787 99.5871 165.684 98.5548 165.168 97.6258L161.555 91.9484C160.729 90.6064 158.974 90.1935 157.632 91.0193L156.703 91.9484L153.194 97.6258C152.574 98.4516 152.574 99.5871 153.09 100.516C153.607 101.445 154.536 101.961 155.568 101.961ZM154.948 98.7613L158.561 93.0838C158.768 92.7742 159.181 92.6709 159.49 92.8774C159.594 92.9806 159.697 92.9806 159.697 93.0838L163.31 98.7613C163.413 98.9677 163.413 99.2774 163.31 99.4838C163.207 99.6903 162.897 99.8967 162.69 99.8967H155.568C155.258 99.8967 155.052 99.7935 154.948 99.4838C154.845 99.1742 154.845 98.9677 154.948 98.7613V98.7613ZM159.181 104.232C155.878 104.232 153.194 106.916 153.194 110.219C153.194 113.523 155.878 116.206 159.181 116.206C162.484 116.206 165.168 113.523 165.168 110.219C165.168 106.916 162.484 104.232 159.181 104.232V104.232ZM159.181 114.142C157.013 114.142 155.258 112.387 155.258 110.219C155.258 108.052 157.013 106.297 159.181 106.297C161.348 106.297 163.103 108.052 163.103 110.219C163 112.387 161.245 114.142 159.181 114.142ZM177.761 115.794C178.381 115.794 178.794 115.277 178.794 114.761V105.781C178.794 105.161 178.278 104.748 177.761 104.748H168.884C168.265 104.748 167.852 105.264 167.852 105.781V114.761C167.852 115.381 168.368 115.794 168.884 115.794H177.761ZM169.916 106.813H176.729V113.626H169.916V106.813ZM177.761 118.477H154.123C153.503 118.477 153.09 118.994 153.09 119.51C153.09 126.632 158.871 132.413 165.994 132.413C173.116 132.413 178.897 126.632 178.897 119.51C178.794 118.994 178.381 118.477 177.761 118.477ZM165.994 130.348C160.419 130.348 155.878 126.116 155.258 120.645H176.626C176.11 126.116 171.465 130.348 165.994 130.348ZM173.323 89.9871C169.916 89.9871 167.129 92.7742 167.232 96.1806C167.232 99.5871 170.019 102.374 173.426 102.271C176.832 102.271 179.516 99.4838 179.516 96.0774C179.516 92.7742 176.729 89.9871 173.323 89.9871V89.9871ZM173.323 100.206C171.052 100.206 169.297 98.4516 169.297 96.1806C169.297 93.9096 171.052 92.1548 173.323 92.1548C175.594 92.1548 177.348 93.9096 177.348 96.1806C177.348 98.3484 175.49 100.206 173.323 100.206Z" fill="#F22F46"/>
</g>
<g clip-path="url(#clip2_38_4949)">
<path fill-rule="evenodd" clip-rule="evenodd" d="M226.693 109.58H236.994C238.483 109.578 239.852 108.762 240.562 107.453C241.272 106.143 241.209 104.55 240.397 103.302L235.317 95.1747C234.573 93.9976 233.277 93.2842 231.884 93.2842C230.491 93.2842 229.195 93.9976 228.45 95.1747L223.3 103.302C222.507 104.553 222.458 106.137 223.173 107.435C223.887 108.733 225.252 109.539 226.733 109.539L226.693 109.58ZM225.819 104.968L230.969 96.8407C231.152 96.5323 231.485 96.3432 231.843 96.3432C232.202 96.3432 232.534 96.5323 232.717 96.8407L237.867 104.968C238.049 105.282 238.049 105.669 237.867 105.984C237.69 106.317 237.341 106.525 236.963 106.522H226.693C226.311 106.534 225.955 106.331 225.771 105.997C225.586 105.663 225.605 105.253 225.819 104.937V104.968ZM251.703 109.58C251.796 109.713 251.948 109.792 252.11 109.793H253.248C253.456 109.793 253.643 109.664 253.715 109.468L254.802 106.42H258.764L259.78 109.468C259.843 109.672 260.034 109.808 260.247 109.803H261.496C261.656 109.803 261.804 109.723 261.893 109.59C261.988 109.461 262.011 109.292 261.954 109.143L258.164 98.6794C258.028 98.3083 257.676 98.0611 257.281 98.0597H256.468C256.074 98.0566 255.721 98.3003 255.584 98.6693L251.642 109.133C251.59 109.283 251.613 109.449 251.703 109.58V109.58ZM255.452 104.622L256.803 100.935L258.073 104.622H255.452ZM267.957 104.318L265.794 104.551C265.048 104.617 264.339 104.907 263.762 105.384C263.202 105.906 262.907 106.652 262.959 107.416C262.96 108.125 263.25 108.804 263.762 109.295C264.313 109.807 265.042 110.084 265.794 110.067C266.436 110.07 267.069 109.92 267.642 109.631C267.964 109.469 268.265 109.268 268.536 109.031C268.576 109.133 268.623 109.232 268.679 109.326C268.959 109.754 269.448 109.998 269.959 109.966C270.124 109.979 270.291 109.979 270.456 109.966C270.636 109.942 270.813 109.902 270.985 109.844L271.208 109.783V108.158L270.842 108.218H270.629H270.456C270.375 108.218 270.335 108.218 270.335 108.218C270.322 108.165 270.322 108.109 270.335 108.056V103.383C270.385 102.594 269.994 101.843 269.319 101.432C268.551 101.015 267.682 100.821 266.809 100.874C265.989 100.863 265.182 101.085 264.483 101.514C263.96 101.838 263.592 102.363 263.467 102.966L263.376 103.352H265.408L265.489 103.231C265.524 103.186 265.549 103.134 265.56 103.078C265.891 102.754 266.349 102.593 266.809 102.641C267.245 102.615 267.68 102.707 268.069 102.905C268.317 103.077 268.452 103.368 268.425 103.667C268.433 103.799 268.412 103.931 268.364 104.053C268.313 104.135 268.232 104.246 267.957 104.318V104.318ZM266.474 106.227L267.297 106.126C267.572 106.095 267.844 106.041 268.11 105.963L268.374 105.882V106.349C268.382 107.089 267.951 107.763 267.277 108.066C266.67 108.414 265.923 108.414 265.316 108.066C265.105 107.901 264.987 107.643 265.001 107.375C264.975 107.018 265.163 106.68 265.479 106.512C265.79 106.348 266.126 106.238 266.474 106.187V106.227ZM269.156 115.858H254.934C254.092 115.858 253.41 116.54 253.41 117.382C253.41 118.223 254.092 118.905 254.934 118.905H269.156C269.998 118.905 270.68 118.223 270.68 117.382C270.68 116.54 269.998 115.858 269.156 115.858V115.858ZM269.156 123.985H254.934C254.092 123.985 253.41 124.667 253.41 125.509C253.41 126.35 254.092 127.032 254.934 127.032H269.156C269.998 127.032 270.68 126.35 270.68 125.509C270.68 124.667 269.998 123.985 269.156 123.985ZM269.156 132.112H254.934C254.092 132.112 253.41 132.794 253.41 133.636C253.41 134.477 254.092 135.159 254.934 135.159H269.156C269.998 135.159 270.68 134.477 270.68 133.636C270.68 132.794 269.998 132.112 269.156 132.112ZM231.843 121.943C228.274 121.943 225.057 124.095 223.694 127.393C222.331 130.692 223.091 134.487 225.619 137.007C228.147 139.526 231.945 140.273 235.239 138.898C238.533 137.524 240.673 134.299 240.661 130.73C240.644 125.872 236.701 121.943 231.843 121.943V121.943ZM231.843 136.551C228.645 136.551 226.053 133.959 226.053 130.761C226.053 127.563 228.645 124.97 231.843 124.97C233.1 124.969 234.321 125.383 235.317 126.149L231.437 130.801L230.583 129.948C230.201 129.565 229.642 129.416 229.119 129.556C228.596 129.696 228.188 130.104 228.048 130.627C227.908 131.15 228.057 131.709 228.44 132.091L230.472 134.123C230.755 134.405 231.139 134.562 231.538 134.56H231.609C232.034 134.542 232.432 134.346 232.707 134.022L237.207 128.607C237.485 129.281 237.629 130.002 237.634 130.73C237.639 132.27 237.032 133.749 235.945 134.841C234.859 135.933 233.383 136.548 231.843 136.551V136.551Z" fill="#F22F46"/>
<path fill-rule="evenodd" clip-rule="evenodd" d="M275.759 84.5181H217.225C216.389 84.5181 215.711 85.1958 215.711 86.0317V145.968C215.711 146.804 216.389 147.482 217.225 147.482H275.759C276.595 147.482 277.273 146.804 277.273 145.968V86.0317C277.273 85.1958 276.595 84.5181 275.759 84.5181V84.5181ZM245.283 87.5657V114.679H218.738V87.5454L245.283 87.5657ZM218.738 117.707H245.293V144.455H218.738V117.707ZM274.246 144.455H248.321V87.5657H274.246V144.455Z" fill="#06033A"/>
</g>
<defs>
<clipPath id="clip0_38_4949">
<rect width="63" height="64" fill="white" transform="translate(67 84)"/>
</clipPath>
<clipPath id="clip1_38_4949">
<rect width="51" height="64" fill="white" transform="translate(147 84)"/>
</clipPath>
<clipPath id="clip2_38_4949">
<rect width="63" height="64" fill="white" transform="translate(215 84)"/>
</clipPath>
</defs>
</svg>
