<?xml version="1.0" encoding="UTF-8" standalone="no"?>
<svg width="800px" height="541px" viewBox="0 0 800 541" version="1.1" xmlns="http://www.w3.org/2000/svg" xmlns:xlink="http://www.w3.org/1999/xlink">
    <!-- Generator: Sketch 41 (35326) - http://www.bohemiancoding.com/sketch -->
    <title>Group 7</title>
    <desc>Created with Sketch.</desc>
    <defs>
        <rect id="path-1" x="65" y="60" width="407" height="85"></rect>
        <mask id="mask-2" maskContentUnits="userSpaceOnUse" maskUnits="objectBoundingBox" x="-1" y="-1" width="409" height="87">
            <rect x="64" y="59" width="409" height="87" fill="white"></rect>
            <use xlink:href="#path-1" fill="black"></use>
        </mask>
        <rect id="path-3" x="5" y="0" width="527" height="205"></rect>
        <mask id="mask-4" maskContentUnits="userSpaceOnUse" maskUnits="objectBoundingBox" x="-1" y="-1" width="529" height="207">
            <rect x="4" y="-1" width="529" height="207" fill="white"></rect>
            <use xlink:href="#path-3" fill="black"></use>
        </mask>
        <polygon id="path-5" points="0.6018 51 49.4248 51 49.4248 0.2541 0.6018 0.2541 0.6018 51"></polygon>
        <polygon id="path-7" points="0.4316 85 49.2546 85 49.2546 0.3243 0.4316 0.3243 0.4316 85"></polygon>
        <polygon id="path-9" points="0.7229 51 49.5459 51 49.5459 0.2541 0.7229 0.2541 0.7229 51"></polygon>
        <polygon id="path-11" points="0.284 51 39.934 51 39.934 0.2542 0.284 0.2542 0.284 51"></polygon>
        <polygon id="path-13" points="0.4672 51 34.7422 51 34.7422 0.2535 0.4672 0.2535"></polygon>
    </defs>
    <g id="Page-1" stroke="none" stroke-width="1" fill="none" fill-rule="evenodd">
        <g id="Artboard-Copy" transform="translate(-165.000000, -457.000000)">
            <g id="Group-7" transform="translate(165.000000, 457.000000)">
                <rect id="Rectangle-4-Copy-3" fill="#F6F8FA" x="0" y="0.685993098" width="800" height="540"></rect>
                <g id="Group-2" transform="translate(132.500000, 168.185993)">
                    <text id="Equal" font-family="OpenSans-Semibold, Open Sans" font-size="12" font-weight="500" letter-spacing="0.0923076943" fill="#8492A6">
                        <tspan x="77.2204026" y="176">Equal</tspan>
                    </text>
                    <text id="Equal-Copy-2" font-family="OpenSans-Semibold, Open Sans" font-size="12" font-weight="500" letter-spacing="0.0923076943" fill="#8492A6">
                        <tspan x="291.220403" y="180">Equal</tspan>
                    </text>
                    <text id="Equal-Copy-3" font-family="OpenSans-Semibold, Open Sans" font-size="12" font-weight="500" letter-spacing="0.0923076943" fill="#8492A6">
                        <tspan x="291.220403" y="35">Equal</tspan>
                    </text>
                    <text id="Equal-Copy-4" font-family="OpenSans-Semibold, Open Sans" font-size="12" font-weight="500" letter-spacing="0.0923076943" fill="#8492A6">
                        <tspan x="486.220403" y="111">Equal</tspan>
                    </text>
                    <text id="Equal-Copy" font-family="OpenSans-Semibold, Open Sans" font-size="12" font-weight="500" letter-spacing="0.0923076943" fill="#8492A6">
                        <tspan x="16.2204026" y="110">Equal</tspan>
                    </text>
                    <use id="Rectangle-4" stroke="#C8CFD5" mask="url(#mask-2)" stroke-width="2" stroke-dasharray="5,4" xlink:href="#path-1"></use>
                    <use id="Rectangle-4-Copy" stroke="#C9CFD5" mask="url(#mask-4)" stroke-width="2" stroke-dasharray="5,4" xlink:href="#path-3"></use>
                    <g id="Page-1" transform="translate(65.000000, 59.000000)">
                        <g id="Group-3" transform="translate(88.000000, 34.675800)">
                            <mask id="mask-6" fill="white">
                                <use xlink:href="#path-5"></use>
                            </mask>
                            <g id="Clip-2"></g>
                            <path d="M11.9448,25.4551 C11.9448,30.0591 13.1778,33.8071 15.6428,36.6991 C18.1748,39.6251 21.3638,41.0881 25.2118,41.0881 C29.3208,41.0881 32.6408,39.6761 35.1728,36.8481 C37.7048,33.9221 38.9698,30.2071 38.9698,25.7011 C38.9698,21.1971 37.7048,17.4821 35.1728,14.5571 C32.6408,11.6951 29.3538,10.2661 25.3088,10.2661 C21.4958,10.2661 18.3068,11.7131 15.7428,14.6051 C13.2108,17.5311 11.9448,21.1481 11.9448,25.4551 L11.9448,25.4551 Z M38.2798,1.5861 L49.4248,1.5861 L49.4248,49.6191 L38.2798,49.6191 L38.2798,44.5901 C33.7098,48.8631 28.7948,51.0001 23.5338,51.0001 C16.8928,51.0001 11.4028,48.6011 7.0628,43.8011 C2.7558,38.9021 0.6018,32.7871 0.6018,25.4551 C0.6018,18.2541 2.7558,12.2561 7.0628,7.4551 C11.3698,2.6541 16.7608,0.2541 23.2388,0.2541 C28.8278,0.2541 33.8408,2.5571 38.2798,7.1581 L38.2798,1.5861 Z" id="Fill-1" fill="#1986C7" mask="url(#mask-6)"></path>
                        </g>
                        <g id="Group-6" transform="translate(151.000000, 0.675800)">
                            <mask id="mask-8" fill="white">
                                <use xlink:href="#path-7"></use>
                            </mask>
                            <g id="Clip-5"></g>
                            <path d="M37.9116,59.9473 C37.9116,55.3453 36.6616,51.5973 34.1636,48.7033 C31.6316,45.7443 28.4596,44.2653 24.6446,44.2653 C20.5686,44.2653 17.2486,45.6953 14.6836,48.5563 C12.1516,51.3843 10.8866,55.0663 10.8866,59.6033 C10.8866,64.2713 12.1356,68.0043 14.6346,70.7973 C17.1326,73.6583 20.4206,75.0883 24.4976,75.0883 C28.3446,75.0883 31.5326,73.6583 34.0646,70.7973 C36.6296,67.9043 37.9116,64.2873 37.9116,59.9473 L37.9116,59.9473 Z M11.5276,0.3243 L11.5276,41.1583 C15.9656,36.5563 20.9966,34.2543 26.6176,34.2543 C33.0956,34.2543 38.4866,36.6713 42.7936,41.5043 C47.1006,46.3043 49.2546,52.2873 49.2546,59.4553 C49.2546,66.8513 47.0846,72.9673 42.7446,77.8013 C38.4366,82.6013 32.9966,85.0003 26.4206,85.0003 C20.8646,85.0003 15.8996,82.8633 11.5276,78.5903 L11.5276,83.6193 L0.4316,83.6193 L0.4316,0.3243 L11.5276,0.3243 Z" id="Fill-4" fill="#1986C7" mask="url(#mask-8)"></path>
                        </g>
                        <g id="Group-9" transform="translate(209.000000, 34.675800)">
                            <mask id="mask-10" fill="white">
                                <use xlink:href="#path-9"></use>
                            </mask>
                            <g id="Clip-8"></g>
                            <path d="M12.0649,25.4551 C12.0649,30.0591 13.2989,33.8071 15.7639,36.6991 C18.2959,39.6251 21.4849,41.0881 25.3329,41.0881 C29.4419,41.0881 32.7619,39.6761 35.2939,36.8481 C37.8249,33.9221 39.0899,30.2071 39.0899,25.7011 C39.0899,21.1971 37.8249,17.4821 35.2939,14.5571 C32.7619,11.6951 29.4749,10.2661 25.4299,10.2661 C21.6159,10.2661 18.4279,11.7131 15.8639,14.6051 C13.3309,17.5311 12.0649,21.1481 12.0649,25.4551 L12.0649,25.4551 Z M38.4009,1.5861 L49.5459,1.5861 L49.5459,49.6191 L38.4009,49.6191 L38.4009,44.5901 C33.8309,48.8631 28.9149,51.0001 23.6549,51.0001 C17.0139,51.0001 11.5239,48.6011 7.1839,43.8011 C2.8759,38.9021 0.7229,32.7871 0.7229,25.4551 C0.7229,18.2541 2.8759,12.2561 7.1839,7.4551 C11.4909,2.6541 16.8809,0.2541 23.3599,0.2541 C28.9479,0.2541 33.9619,2.5571 38.4009,7.1581 L38.4009,1.5861 Z" id="Fill-7" fill="#1986C7" mask="url(#mask-10)"></path>
                        </g>
                        <g id="Group-12" transform="translate(270.000000, 34.675800)">
                            <mask id="mask-12" fill="white">
                                <use xlink:href="#path-11"></use>
                            </mask>
                            <g id="Clip-11"></g>
                            <path d="M39.934,3.6572 L39.934,18.4022 C37.401,15.3122 35.133,13.1912 33.127,12.0412 C31.155,10.8572 28.838,10.2652 26.174,10.2652 C21.998,10.2652 18.53,11.7282 15.768,14.6542 C13.006,17.5822 11.625,21.2462 11.625,25.6522 C11.625,30.1562 12.957,33.8552 15.622,36.7482 C18.317,39.6422 21.752,41.0882 25.928,41.0882 C28.59,41.0882 30.942,40.5142 32.981,39.3612 C34.954,38.2442 37.27,36.0742 39.934,32.8512 L39.934,47.5002 C35.428,49.8342 30.924,51.0002 26.42,51.0002 C18.991,51.0002 12.776,48.6012 7.78,43.8012 C2.782,38.9672 0.284,32.9692 0.284,25.8012 C0.284,18.6332 2.815,12.5842 7.877,7.6522 C12.94,2.7212 19.155,0.2542 26.52,0.2542 C31.254,0.2542 35.725,1.3892 39.934,3.6572" id="Fill-10" fill="#1986C7" mask="url(#mask-12)"></path>
                        </g>
                        <path d="M331.7817,36.2617 L331.7817,63.8297 C331.7817,71.7867 334.9207,75.7637 341.1997,75.7637 C347.4787,75.7637 350.6197,71.7867 350.6197,63.8297 L350.6197,36.2617 L361.7157,36.2617 L361.7157,64.0767 C361.7157,67.9217 361.2387,71.2447 360.2857,74.0367 C359.3657,76.5367 357.7697,78.7887 355.5027,80.7947 C351.7547,84.0487 346.9867,85.6757 341.1997,85.6757 C335.4457,85.6757 330.6957,84.0487 326.9477,80.7947 C324.6467,78.7887 323.0177,76.5367 322.0647,74.0367 C321.1447,71.8027 320.6837,68.4827 320.6837,64.0767 L320.6837,36.2617 L331.7817,36.2617 Z" id="Fill-13" fill="#1986C7"></path>
                        <g id="Group-17" transform="translate(372.000000, 34.675800)">
                            <mask id="mask-14" fill="white">
                                <use xlink:href="#path-13"></use>
                            </mask>
                            <g id="Clip-16"></g>
                            <path d="M31.6352,9.7715 L22.4612,14.6545 C21.0142,11.7285 19.2232,10.2655 17.0862,10.2655 C16.0672,10.2655 15.1962,10.6015 14.4732,11.2755 C13.7482,11.9495 13.3872,12.8105 13.3872,13.8615 C13.3872,15.7015 15.5242,17.5235 19.7992,19.3285 C25.6842,21.8575 29.6452,24.1895 31.6842,26.3245 C33.7232,28.4575 34.7422,31.3325 34.7422,34.9435 C34.7422,39.5725 33.0312,43.4495 29.6132,46.5685 C26.2912,49.5235 22.2812,51.0005 17.5802,51.0005 C9.5242,51.0005 3.8212,47.0725 0.4672,39.2145 L9.9362,34.8245 C11.2502,37.1265 12.2542,38.5895 12.9442,39.2145 C14.2912,40.4645 15.9032,41.0875 17.7782,41.0875 C21.5262,41.0875 23.3992,39.3785 23.3992,35.9585 C23.3992,33.9865 21.9512,32.1465 19.0592,30.4355 C17.9422,29.8765 16.8222,29.3335 15.7052,28.8085 C14.5882,28.2835 13.4532,27.7405 12.3032,27.1815 C9.0802,25.6035 6.8112,24.0255 5.4962,22.4475 C3.8212,20.4415 2.9832,17.8595 2.9832,14.7035 C2.9832,10.5295 4.4122,7.0775 7.2722,4.3475 C10.1982,1.6195 13.7482,0.2535 17.9242,0.2535 C24.0732,0.2535 28.6432,3.4275 31.6352,9.7715" id="Fill-15" fill="#1986C7" mask="url(#mask-14)"></path>
                        </g>
                        <path d="M40.2353,44.9297 C40.2353,50.4527 35.7573,54.9297 30.2353,54.9297 C24.7123,54.9297 20.2353,50.4527 20.2353,44.9297 C20.2353,39.4067 24.7123,34.9297 30.2353,34.9297 C35.7573,34.9297 40.2353,39.4067 40.2353,44.9297" id="Fill-18" fill="#1986C7"></path>
                        <path d="M20,75.6758 C20,81.1998 15.523,85.6758 10,85.6758 C4.477,85.6758 0,81.1998 0,75.6758 C0,70.1538 4.477,65.6758 10,65.6758 C15.523,65.6758 20,70.1538 20,75.6758" id="Fill-20" fill="#1986C7"></path>
                        <path d="M60.4702,75.6758 C60.4702,81.1998 55.9932,85.6758 50.4692,85.6758 C44.9472,85.6758 40.4702,81.1998 40.4702,75.6758 C40.4702,70.1538 44.9472,65.6758 50.4692,65.6758 C55.9932,65.6758 60.4702,70.1538 60.4702,75.6758" id="Fill-22" fill="#1986C7"></path>
                    </g>
                    <polyline id="Path-3" stroke="#D3DCE6" stroke-width="2" transform="translate(95.000000, 152.756574) scale(1, -1) translate(-95.000000, -152.756574) " points="65 157.513149 65 148 125 148 125 156.028854"></polyline>
                    <path d="M5,119.5 L65,119.5" id="Path-3-Copy" stroke="#D3DCE6" transform="translate(35.000000, 119.500000) scale(1, -1) translate(-35.000000, -119.500000) "></path>
                    <path d="M472,119.5 L532,119.5" id="Path-3-Copy-4" stroke="#D3DCE6" transform="translate(502.000000, 119.500000) scale(1, -1) translate(-502.000000, -119.500000) "></path>
                    <path d="M284.5,205 L284.5,145" id="Path-3-Copy-2" stroke="#D3DCE6" transform="translate(284.500000, 175.000000) scale(1, -1) translate(-284.500000, -175.000000) "></path>
                    <path d="M284.5,60 L284.5,0" id="Path-3-Copy-3" stroke="#D3DCE6" transform="translate(284.500000, 30.000000) scale(1, -1) translate(-284.500000, -30.000000) "></path>
                </g>
            </g>
        </g>
    </g>
</svg>