<?xml version="1.0" encoding="UTF-8" standalone="no"?>
<svg width="800px" height="591px" viewBox="0 0 800 591" version="1.1" xmlns="http://www.w3.org/2000/svg" xmlns:xlink="http://www.w3.org/1999/xlink">
    <!-- Generator: Sketch 41 (35326) - http://www.bohemiancoding.com/sketch -->
    <title>Group 14</title>
    <desc>Created with Sketch.</desc>
    <defs>
        <circle id="path-1" cx="39.5" cy="39.5" r="39.5"></circle>
        <filter x="-50%" y="-50%" width="200%" height="200%" filterUnits="objectBoundingBox" id="filter-3">
            <feMorphology radius="0.5" operator="dilate" in="SourceAlpha" result="shadowSpreadOuter1"></feMorphology>
            <feOffset dx="0" dy="2" in="shadowSpreadOuter1" result="shadowOffsetOuter1"></feOffset>
            <feGaussianBlur stdDeviation="1.5" in="shadowOffsetOuter1" result="shadowBlurOuter1"></feGaussianBlur>
            <feComposite in="shadowBlurOuter1" in2="SourceAlpha" operator="out" result="shadowBlurOuter1"></feComposite>
            <feColorMatrix values="0 0 0 0 0   0 0 0 0 0   0 0 0 0 0  0 0 0 0.0652456975 0" type="matrix" in="shadowBlurOuter1"></feColorMatrix>
        </filter>
        <polygon id="path-4" points="23.00023 46 46 46 46 0 23.00023 0 0.00046 0 0.00046 46 23.00023 46"></polygon>
    </defs>
    <g id="Page-1" stroke="none" stroke-width="1" fill="none" fill-rule="evenodd">
        <g id="Artboard-Copy" transform="translate(-165.000000, -1637.000000)">
            <g id="Group-14" transform="translate(165.000000, 1637.000000)">
                <g id="Group-7-Copy-2" transform="translate(0.000000, 0.558238)" fill="#F6F8FA">
                    <rect id="Rectangle-4-Copy-3" x="0" y="0.00296398825" width="799.515836" height="589.719428"></rect>
                </g>
                <g id="Group" transform="translate(239.000000, 88.125000)">
                    <path d="M114,48 L114,48.04 L104.04,58 L103.995,58 L103.995,58.045 L84.045,77.995 L84,77.995 L84,138 L84,148 L93.995,148 L173.84,148 L183.84,148 L183.995,148 L183.995,48 L114,48 Z M108.375,88 L114,88 L154,88 L162.44,88 L164,88 L164,58 L174,58 L174,138 L164,138 L164,108 L159.625,108 L154,108 L114,108 L105.565,108 L103.995,108 L103.995,138 L93.995,138 L93.995,82.18 L103.995,72.185 L103.995,88 L108.375,88 Z M114,62.185 L118.185,58 L154,58 L154,77.995 L114,77.995 L114,62.185 Z M114,138 L154,138 L154,117.995 L114,117.995 L114,138 Z M118.375,72.995 L128.375,72.995 L128.375,62.995 L118.375,62.995 L118.375,72.995 Z" id="Page-1" fill="#3C4858"></path>
                    <g id="Page-1-Copy" transform="translate(152.000000, 0.000000)">
                        <mask id="mask-2" fill="white">
                            <use xlink:href="#path-1"></use>
                        </mask>
                        <g id="Mask">
                            <use fill="black" fill-opacity="1" filter="url(#filter-3)" xlink:href="#path-1"></use>
                            <use stroke="#E5E8EB" stroke-width="1" fill="#FFFFFF" fill-rule="evenodd" xlink:href="#path-1"></use>
                        </g>
                        <path d="M-72.7973899,28 L-90.1286564,45.4 L-124.921696,80.1913 L-125,184.6 L-125,202 L-107.60783,202 L31.3294165,202 L48.7302865,202 L49,28 L-72.7973899,28 Z M-82.5001832,97.631295 L-72.7308972,97.631295 L-3.26041898,97.631295 L11.3978519,97.631295 L14.1072006,97.631295 L14.1072006,45.5251799 L31.4748201,45.5251799 L31.4748201,184.47482 L14.1072006,184.47482 L14.1072006,132.368705 L6.50886703,132.368705 L-3.26041898,132.368705 L-72.7308972,132.368705 L-87.3804843,132.368705 L-90.1072006,132.368705 L-90.1072006,184.47482 L-107.47482,184.47482 L-107.47482,87.5227086 L-90.1072006,70.1626879 L-90.1072006,97.631295 L-82.5001832,97.631295 Z M-72.4244604,52.8613017 L-65.0901727,45.5251799 L-2.32374101,45.5251799 L-2.32374101,80.5755396 L-72.4244604,80.5755396 L-72.4244604,52.8613017 Z M-72.4244604,184.47482 L-2.32374101,184.47482 L-2.32374101,149.42446 L-72.4244604,149.42446 L-72.4244604,184.47482 Z M-64.9136691,71.8129496 L-47.3884892,71.8129496 L-47.3884892,54.2877698 L-64.9136691,54.2877698 L-64.9136691,71.8129496 Z" fill="#3C4858" mask="url(#mask-2)"></path>
                    </g>
                    <text id="Sharp-Edges" font-family="OpenSans-Semibold, Open Sans" font-size="12" font-weight="500" letter-spacing="0.0923076943" fill="#8492A6">
                        <tspan x="245" y="35">Sharp Edges</tspan>
                    </text>
                    <text id="10px-Stroke" font-family="OpenSans-Semibold, Open Sans" font-size="12" font-weight="500" letter-spacing="0.0923076943" fill="#8492A6">
                        <tspan x="245" y="54">10px Stroke</tspan>
                    </text>
                    <text id="100px" font-family="OpenSans-Semibold, Open Sans" font-size="12" font-weight="500" letter-spacing="0.0923076943" fill="#8492A6">
                        <tspan x="117.071965" y="197">100px</tspan>
                    </text>
                    <text id="100px-copy" font-family="OpenSans-Semibold, Open Sans" font-size="12" font-weight="500" letter-spacing="0.0923076943" fill="#8492A6">
                        <tspan x="7.07196514" y="104">100px</tspan>
                    </text>
                    <polyline id="Path-3" stroke="#D3DCE6" stroke-width="2" transform="translate(134.000000, 170.756574) scale(1, -1) translate(-134.000000, -170.756574) " points="84 175.513149 84 166 184 166 184 174.028854"></polyline>
                    <polyline id="Path-3-Copy" stroke="#D3DCE6" stroke-width="2" transform="translate(61.756574, 97.000000) scale(-1, -1) rotate(90.000000) translate(-61.756574, -97.000000) " points="11.7565744 101.756574 11.7565744 92.2434256 111.756574 92.2434256 111.756574 100.27228"></polyline>
                </g>
                <g id="Page-1" transform="translate(131.000000, 417.125000)" fill="#ABB1B9">
                    <path d="M8.06290064,0 L8.06290064,16.730634 L0,16.730634 L0,46 L37.8196114,46 L37.8196114,30.501055 L46,30.501055 L46,0 L8.06290064,0 Z M12.6702724,4.62172209 L41.3926282,4.62172209 L41.3926282,25.877022 L37.8196114,25.877022 L37.8196114,16.730634 L12.6702724,16.730634 L12.6702724,4.62172209 Z M4.60737179,41.3782779 L33.2122396,41.3782779 L33.2122396,21.3500452 L4.60737179,21.3500452 L4.60737179,41.3782779 Z" id="Fill-1"></path>
                    <polygon id="Fill-2" points="8.17777778 29.6444444 29.6444444 29.6444444 29.6444444 24.5333333 8.17777778 24.5333333"></polygon>
                    <polygon id="Fill-3" points="16.3555556 13.2888889 37.8222222 13.2888889 37.8222222 8.17777778 16.3555556 8.17777778"></polygon>
                    <polygon id="Fill-4" points="25.5555556 38.8444444 30.6666667 38.8444444 30.6666667 33.7333333 25.5555556 33.7333333"></polygon>
                </g>
                <path d="M272.6,442.125 L286.4,442.125 L286.4,437.525 L272.6,437.525 L272.6,442.125 Z M272.6,432.925 L286.4,432.925 L286.4,428.325 L272.6,428.325 L272.6,432.925 Z M293.3,427.175 L293.3,422.575 C295.8369,422.575 297.9,424.6381 297.9,427.175 L293.3,427.175 Z M288.7,454.775 C288.7,457.3119 286.6369,459.375 284.1,459.375 L284.1,451.325 L270.3,451.325 L270.3,427.175 C270.3,424.6381 272.3631,423.725 274.9,423.725 L288.7,423.725 L288.7,454.775 Z M279.5,460.525 L265.7,460.525 C263.1631,460.525 261.1,458.225 261.1,455.925 L279.5,455.925 L279.5,460.525 Z M293.3,419.125 L274.9,419.125 C269.8193,419.125 265.7,422.0943 265.7,427.175 L265.7,451.325 L256.5,451.325 L256.5,454.775 C256.5,459.8557 260.6193,465.125 265.7,465.125 L284.1,465.125 C289.1807,465.125 293.3,459.8557 293.3,454.775 L293.3,432.925 L302.5,432.925 L302.5,427.175 C302.5,422.0943 298.3807,419.125 293.3,419.125 L293.3,419.125 Z" id="Page-1" fill="#ABB1B9"></path>
                <g id="Page-1" transform="translate(382.000000, 419.125000)">
                    <mask id="mask-5" fill="white">
                        <use xlink:href="#path-4"></use>
                    </mask>
                    <g id="Clip-2"></g>
                    <path d="M23.02576,20.7 C25.56266,20.7 27.62576,22.7631 27.62576,25.3 C27.62576,27.8369 25.56266,29.9 23.02576,29.9 C20.48886,29.9 18.42576,27.8369 18.42576,25.3 C18.42576,22.7631 20.48886,20.7 23.02576,20.7 L23.02576,20.7 Z M23.02576,34.5 C28.10646,34.5 32.22576,30.3807 32.22576,25.3 C32.22576,20.2193 28.10646,16.1 23.02576,16.1 C17.94506,16.1 13.82576,20.2193 13.82576,25.3 C13.82576,30.3807 17.94506,34.5 23.02576,34.5 L23.02576,34.5 Z M4.60046,41.4 L41.40046,41.4 L41.40046,13.8 L4.60046,13.8 L4.60046,41.4 Z M16.10046,9.2 L29.90046,9.2 L29.90046,4.6 L16.10046,4.6 L16.10046,9.2 Z M43.70046,9.2 L43.70046,4.6 L39.10046,4.6 L39.10046,9.2 L34.50046,9.2 L34.50046,0 L11.50046,0 L11.50046,9.2 L0.00046,9.2 L0.00046,46 L46.00046,46 L46.00046,9.2 L43.70046,9.2 Z" id="Fill-1" fill="#ABB1B9" mask="url(#mask-5)"></path>
                </g>
                <path d="M530.50276,418.125 L507.5,441.104762 L510.74734,444.356701 L512.101932,442.992911 L512.101932,464.12132 L528.200644,464.12132 L528.200644,454.922056 L532.800276,454.922056 L532.800276,464.12132 L548.898988,464.12132 L548.898988,464.112121 L548.898988,443.036607 L550.24438,444.3797 L553.50092,441.12776 L548.898988,436.532727 L548.898988,436.521228 L548.896688,436.521228 L530.50276,418.125 Z M516.701564,438.393279 L530.477462,424.615081 L544.299356,438.436975 L544.299356,459.521688 L537.399908,459.521688 L537.399908,450.320124 L523.601012,450.320124 L523.601012,459.521688 L516.701564,459.521688 L516.701564,438.393279 Z" id="Page-1" fill="#ABB1B9"></path>
                <path d="M635.591549,431.082746 L640.774648,431.082746 L640.774648,418.125 L635.591549,418.125 L635.591549,431.082746 Z M669.28169,441.448944 L664.098592,441.448944 L664.098592,449.223592 L669.28169,449.223592 C675.242254,449.223592 675.242254,441.448944 669.28169,441.448944 L669.28169,441.448944 Z M658.915493,441.448944 L638.183099,441.448944 L638.183099,449.223592 C638.183099,454.925 642.847887,459.589789 648.549296,459.589789 C654.250704,459.589789 658.915493,454.925 658.915493,449.223592 L658.915493,441.448944 Z M669.28169,454.40669 L663.321127,454.40669 C661.247887,460.367254 655.546479,464.772887 648.549296,464.772887 C639.997183,464.772887 633,457.775704 633,449.223592 L633,436.265845 L664.098592,436.265845 L669.28169,436.265845 C682.239437,436.265845 682.239437,454.40669 669.28169,454.40669 L669.28169,454.40669 Z M656.323944,431.082746 L661.507042,431.082746 L661.507042,418.125 L656.323944,418.125 L656.323944,431.082746 Z M645.957746,431.082746 L651.140845,431.082746 L651.140845,418.125 L645.957746,418.125 L645.957746,431.082746 Z" id="Page-1" fill="#ABB1B9"></path>
            </g>
        </g>
    </g>
</svg>