<svg width="1000" height="500" viewBox="0 0 1000 500" fill="none" xmlns="http://www.w3.org/2000/svg">
<rect width="500" height="500" transform="translate(500)" fill="white"/>
<path fill-rule="evenodd" clip-rule="evenodd" d="M692.995 116.998C692.995 123.071 688.071 127.995 681.998 127.995C675.924 127.995 671 123.071 671 116.998C671 110.924 675.924 106 681.998 106C688.071 106 692.995 110.924 692.995 116.998ZM681 135.97V128L690.143 131.2L693.346 132.235C697.989 128.771 700.995 123.236 700.995 116.998C700.995 106.506 692.49 98 681.998 98C671.506 98 663 106.506 663 116.998C663 127.155 670.972 135.451 681 135.97Z" fill="#7E5BEF"/>
<path d="M712.947 116.088C712.947 114.501 713.209 113.064 713.731 111.776C714.273 110.488 715.019 109.396 715.971 108.5C716.923 107.585 718.053 106.885 719.359 106.4C720.666 105.915 722.094 105.672 723.643 105.672C725.193 105.672 726.621 105.915 727.927 106.4C729.234 106.885 730.363 107.585 731.315 108.5C732.267 109.396 733.005 110.488 733.527 111.776C734.069 113.064 734.339 114.501 734.339 116.088C734.339 117.675 734.069 119.112 733.527 120.4C733.005 121.688 732.267 122.789 731.315 123.704C730.363 124.6 729.234 125.291 727.927 125.776C726.621 126.261 725.193 126.504 723.643 126.504C722.094 126.504 720.666 126.261 719.359 125.776C718.053 125.291 716.923 124.6 715.971 123.704C715.019 122.789 714.273 121.688 713.731 120.4C713.209 119.112 712.947 117.675 712.947 116.088ZM717.483 116.088C717.483 117.021 717.623 117.88 717.903 118.664C718.202 119.429 718.622 120.101 719.163 120.68C719.705 121.24 720.349 121.679 721.095 121.996C721.861 122.313 722.71 122.472 723.643 122.472C724.577 122.472 725.417 122.313 726.163 121.996C726.929 121.679 727.582 121.24 728.123 120.68C728.665 120.101 729.075 119.429 729.355 118.664C729.654 117.88 729.803 117.021 729.803 116.088C729.803 115.173 729.654 114.324 729.355 113.54C729.075 112.756 728.665 112.084 728.123 111.524C727.582 110.945 726.929 110.497 726.163 110.18C725.417 109.863 724.577 109.704 723.643 109.704C722.71 109.704 721.861 109.863 721.095 110.18C720.349 110.497 719.705 110.945 719.163 111.524C718.622 112.084 718.202 112.756 717.903 113.54C717.623 114.324 717.483 115.173 717.483 116.088ZM749.88 126H745.848V124.152H745.792C745.643 124.413 745.447 124.675 745.204 124.936C744.98 125.197 744.7 125.431 744.364 125.636C744.028 125.841 743.646 126.009 743.216 126.14C742.787 126.271 742.32 126.336 741.816 126.336C740.752 126.336 739.884 126.177 739.212 125.86C738.559 125.524 738.046 125.067 737.672 124.488C737.318 123.909 737.075 123.228 736.944 122.444C736.832 121.66 736.776 120.811 736.776 119.896V112.392H740.976V119.056C740.976 119.448 740.986 119.859 741.004 120.288C741.042 120.699 741.126 121.081 741.256 121.436C741.406 121.791 741.62 122.08 741.9 122.304C742.199 122.528 742.619 122.64 743.16 122.64C743.702 122.64 744.14 122.547 744.476 122.36C744.812 122.155 745.064 121.893 745.232 121.576C745.419 121.24 745.54 120.867 745.596 120.456C745.652 120.045 745.68 119.616 745.68 119.168V112.392H749.88V126ZM762.122 115.752H758.426V120.288C758.426 120.661 758.445 121.007 758.482 121.324C758.52 121.623 758.604 121.884 758.734 122.108C758.865 122.332 759.061 122.509 759.322 122.64C759.602 122.752 759.966 122.808 760.414 122.808C760.638 122.808 760.928 122.789 761.282 122.752C761.656 122.696 761.936 122.584 762.122 122.416V125.916C761.656 126.084 761.17 126.196 760.666 126.252C760.162 126.308 759.668 126.336 759.182 126.336C758.473 126.336 757.82 126.261 757.222 126.112C756.625 125.963 756.102 125.729 755.654 125.412C755.206 125.076 754.852 124.647 754.59 124.124C754.348 123.601 754.226 122.967 754.226 122.22V115.752H751.538V112.392H754.226V108.36H758.426V112.392H762.122V115.752ZM773.469 116.788C773.263 116.489 772.974 116.247 772.601 116.06C772.227 115.855 771.826 115.752 771.397 115.752C770.333 115.752 769.502 116.069 768.905 116.704C768.326 117.339 768.037 118.169 768.037 119.196C768.037 120.223 768.326 121.053 768.905 121.688C769.502 122.323 770.333 122.64 771.397 122.64C771.863 122.64 772.265 122.537 772.601 122.332C772.937 122.127 773.226 121.884 773.469 121.604L776.241 124.516C775.587 125.188 774.813 125.664 773.917 125.944C773.039 126.205 772.199 126.336 771.397 126.336C770.351 126.336 769.362 126.168 768.429 125.832C767.514 125.496 766.711 125.02 766.021 124.404C765.349 123.769 764.817 123.013 764.425 122.136C764.033 121.259 763.837 120.279 763.837 119.196C763.837 118.113 764.033 117.133 764.425 116.256C764.817 115.379 765.349 114.632 766.021 114.016C766.711 113.381 767.514 112.896 768.429 112.56C769.362 112.224 770.351 112.056 771.397 112.056C772.199 112.056 773.039 112.196 773.917 112.476C774.813 112.737 775.587 113.204 776.241 113.876L773.469 116.788ZM777.26 119.196C777.26 118.113 777.456 117.133 777.848 116.256C778.24 115.379 778.772 114.632 779.444 114.016C780.135 113.381 780.938 112.896 781.852 112.56C782.786 112.224 783.775 112.056 784.82 112.056C785.866 112.056 786.846 112.224 787.76 112.56C788.694 112.896 789.496 113.381 790.168 114.016C790.859 114.632 791.4 115.379 791.792 116.256C792.184 117.133 792.38 118.113 792.38 119.196C792.38 120.279 792.184 121.259 791.792 122.136C791.4 123.013 790.859 123.769 790.168 124.404C789.496 125.02 788.694 125.496 787.76 125.832C786.846 126.168 785.866 126.336 784.82 126.336C783.775 126.336 782.786 126.168 781.852 125.832C780.938 125.496 780.135 125.02 779.444 124.404C778.772 123.769 778.24 123.013 777.848 122.136C777.456 121.259 777.26 120.279 777.26 119.196ZM781.46 119.196C781.46 120.223 781.75 121.053 782.328 121.688C782.926 122.323 783.756 122.64 784.82 122.64C785.884 122.64 786.706 122.323 787.284 121.688C787.882 121.053 788.18 120.223 788.18 119.196C788.18 118.169 787.882 117.339 787.284 116.704C786.706 116.069 785.884 115.752 784.82 115.752C783.756 115.752 782.926 116.069 782.328 116.704C781.75 117.339 781.46 118.169 781.46 119.196ZM794.854 112.392H798.886V114.24H798.942C799.073 113.979 799.26 113.717 799.502 113.456C799.745 113.195 800.034 112.961 800.37 112.756C800.706 112.551 801.089 112.383 801.518 112.252C801.948 112.121 802.414 112.056 802.918 112.056C803.87 112.056 804.71 112.252 805.438 112.644C806.185 113.036 806.745 113.652 807.118 114.492C807.604 113.615 808.192 112.989 808.882 112.616C809.573 112.243 810.422 112.056 811.43 112.056C812.345 112.056 813.11 112.215 813.726 112.532C814.361 112.831 814.856 113.251 815.21 113.792C815.584 114.315 815.845 114.94 815.994 115.668C816.162 116.377 816.246 117.143 816.246 117.964V126H812.046V118.076C812.046 117.441 811.906 116.9 811.626 116.452C811.365 115.985 810.889 115.752 810.198 115.752C809.713 115.752 809.302 115.836 808.966 116.004C808.649 116.153 808.388 116.368 808.182 116.648C807.996 116.928 807.856 117.255 807.762 117.628C807.688 118.001 807.65 118.393 807.65 118.804V126H803.45V118.804C803.45 118.561 803.441 118.263 803.422 117.908C803.404 117.553 803.338 117.217 803.226 116.9C803.114 116.583 802.928 116.312 802.666 116.088C802.424 115.864 802.06 115.752 801.574 115.752C801.033 115.752 800.594 115.855 800.258 116.06C799.922 116.247 799.661 116.508 799.474 116.844C799.306 117.161 799.194 117.525 799.138 117.936C799.082 118.347 799.054 118.776 799.054 119.224V126H794.854V112.392ZM832.098 123.648C831.426 124.507 830.576 125.169 829.55 125.636C828.523 126.103 827.459 126.336 826.358 126.336C825.312 126.336 824.323 126.168 823.39 125.832C822.475 125.496 821.672 125.02 820.982 124.404C820.31 123.769 819.778 123.013 819.386 122.136C818.994 121.259 818.798 120.279 818.798 119.196C818.798 118.113 818.994 117.133 819.386 116.256C819.778 115.379 820.31 114.632 820.982 114.016C821.672 113.381 822.475 112.896 823.39 112.56C824.323 112.224 825.312 112.056 826.358 112.056C827.328 112.056 828.206 112.224 828.99 112.56C829.792 112.896 830.464 113.381 831.006 114.016C831.566 114.632 831.995 115.379 832.294 116.256C832.592 117.133 832.742 118.113 832.742 119.196V120.512H822.998C823.166 121.315 823.53 121.959 824.09 122.444C824.65 122.911 825.34 123.144 826.162 123.144C826.852 123.144 827.431 122.995 827.898 122.696C828.383 122.379 828.803 121.977 829.158 121.492L832.098 123.648ZM828.542 117.656C828.56 116.947 828.327 116.34 827.842 115.836C827.356 115.332 826.731 115.08 825.966 115.08C825.499 115.08 825.088 115.155 824.734 115.304C824.379 115.453 824.071 115.649 823.81 115.892C823.567 116.116 823.371 116.387 823.222 116.704C823.091 117.003 823.016 117.32 822.998 117.656H828.542Z" fill="#7E5BEF"/>
<rect x="500" y="230" width="500" height="270" fill="#7E5BEF"/>
<path fill-rule="evenodd" clip-rule="evenodd" d="M692.995 364.998C692.995 371.071 688.071 375.995 681.998 375.995C675.924 375.995 671 371.071 671 364.998C671 358.924 675.924 354 681.998 354C688.071 354 692.995 358.924 692.995 364.998ZM681 383.97V376L690.143 379.2L693.346 380.235C697.989 376.771 700.995 371.236 700.995 364.998C700.995 354.506 692.49 346 681.998 346C671.506 346 663 354.506 663 364.998C663 375.155 670.972 383.451 681 383.97Z" fill="white"/>
<path d="M712.947 364.088C712.947 362.501 713.209 361.064 713.731 359.776C714.273 358.488 715.019 357.396 715.971 356.5C716.923 355.585 718.053 354.885 719.359 354.4C720.666 353.915 722.094 353.672 723.643 353.672C725.193 353.672 726.621 353.915 727.927 354.4C729.234 354.885 730.363 355.585 731.315 356.5C732.267 357.396 733.005 358.488 733.527 359.776C734.069 361.064 734.339 362.501 734.339 364.088C734.339 365.675 734.069 367.112 733.527 368.4C733.005 369.688 732.267 370.789 731.315 371.704C730.363 372.6 729.234 373.291 727.927 373.776C726.621 374.261 725.193 374.504 723.643 374.504C722.094 374.504 720.666 374.261 719.359 373.776C718.053 373.291 716.923 372.6 715.971 371.704C715.019 370.789 714.273 369.688 713.731 368.4C713.209 367.112 712.947 365.675 712.947 364.088ZM717.483 364.088C717.483 365.021 717.623 365.88 717.903 366.664C718.202 367.429 718.622 368.101 719.163 368.68C719.705 369.24 720.349 369.679 721.095 369.996C721.861 370.313 722.71 370.472 723.643 370.472C724.577 370.472 725.417 370.313 726.163 369.996C726.929 369.679 727.582 369.24 728.123 368.68C728.665 368.101 729.075 367.429 729.355 366.664C729.654 365.88 729.803 365.021 729.803 364.088C729.803 363.173 729.654 362.324 729.355 361.54C729.075 360.756 728.665 360.084 728.123 359.524C727.582 358.945 726.929 358.497 726.163 358.18C725.417 357.863 724.577 357.704 723.643 357.704C722.71 357.704 721.861 357.863 721.095 358.18C720.349 358.497 719.705 358.945 719.163 359.524C718.622 360.084 718.202 360.756 717.903 361.54C717.623 362.324 717.483 363.173 717.483 364.088ZM749.88 374H745.848V372.152H745.792C745.643 372.413 745.447 372.675 745.204 372.936C744.98 373.197 744.7 373.431 744.364 373.636C744.028 373.841 743.646 374.009 743.216 374.14C742.787 374.271 742.32 374.336 741.816 374.336C740.752 374.336 739.884 374.177 739.212 373.86C738.559 373.524 738.046 373.067 737.672 372.488C737.318 371.909 737.075 371.228 736.944 370.444C736.832 369.66 736.776 368.811 736.776 367.896V360.392H740.976V367.056C740.976 367.448 740.986 367.859 741.004 368.288C741.042 368.699 741.126 369.081 741.256 369.436C741.406 369.791 741.62 370.08 741.9 370.304C742.199 370.528 742.619 370.64 743.16 370.64C743.702 370.64 744.14 370.547 744.476 370.36C744.812 370.155 745.064 369.893 745.232 369.576C745.419 369.24 745.54 368.867 745.596 368.456C745.652 368.045 745.68 367.616 745.68 367.168V360.392H749.88V374ZM762.122 363.752H758.426V368.288C758.426 368.661 758.445 369.007 758.482 369.324C758.52 369.623 758.604 369.884 758.734 370.108C758.865 370.332 759.061 370.509 759.322 370.64C759.602 370.752 759.966 370.808 760.414 370.808C760.638 370.808 760.928 370.789 761.282 370.752C761.656 370.696 761.936 370.584 762.122 370.416V373.916C761.656 374.084 761.17 374.196 760.666 374.252C760.162 374.308 759.668 374.336 759.182 374.336C758.473 374.336 757.82 374.261 757.222 374.112C756.625 373.963 756.102 373.729 755.654 373.412C755.206 373.076 754.852 372.647 754.59 372.124C754.348 371.601 754.226 370.967 754.226 370.22V363.752H751.538V360.392H754.226V356.36H758.426V360.392H762.122V363.752ZM773.469 364.788C773.263 364.489 772.974 364.247 772.601 364.06C772.227 363.855 771.826 363.752 771.397 363.752C770.333 363.752 769.502 364.069 768.905 364.704C768.326 365.339 768.037 366.169 768.037 367.196C768.037 368.223 768.326 369.053 768.905 369.688C769.502 370.323 770.333 370.64 771.397 370.64C771.863 370.64 772.265 370.537 772.601 370.332C772.937 370.127 773.226 369.884 773.469 369.604L776.241 372.516C775.587 373.188 774.813 373.664 773.917 373.944C773.039 374.205 772.199 374.336 771.397 374.336C770.351 374.336 769.362 374.168 768.429 373.832C767.514 373.496 766.711 373.02 766.021 372.404C765.349 371.769 764.817 371.013 764.425 370.136C764.033 369.259 763.837 368.279 763.837 367.196C763.837 366.113 764.033 365.133 764.425 364.256C764.817 363.379 765.349 362.632 766.021 362.016C766.711 361.381 767.514 360.896 768.429 360.56C769.362 360.224 770.351 360.056 771.397 360.056C772.199 360.056 773.039 360.196 773.917 360.476C774.813 360.737 775.587 361.204 776.241 361.876L773.469 364.788ZM777.26 367.196C777.26 366.113 777.456 365.133 777.848 364.256C778.24 363.379 778.772 362.632 779.444 362.016C780.135 361.381 780.938 360.896 781.852 360.56C782.786 360.224 783.775 360.056 784.82 360.056C785.866 360.056 786.846 360.224 787.76 360.56C788.694 360.896 789.496 361.381 790.168 362.016C790.859 362.632 791.4 363.379 791.792 364.256C792.184 365.133 792.38 366.113 792.38 367.196C792.38 368.279 792.184 369.259 791.792 370.136C791.4 371.013 790.859 371.769 790.168 372.404C789.496 373.02 788.694 373.496 787.76 373.832C786.846 374.168 785.866 374.336 784.82 374.336C783.775 374.336 782.786 374.168 781.852 373.832C780.938 373.496 780.135 373.02 779.444 372.404C778.772 371.769 778.24 371.013 777.848 370.136C777.456 369.259 777.26 368.279 777.26 367.196ZM781.46 367.196C781.46 368.223 781.75 369.053 782.328 369.688C782.926 370.323 783.756 370.64 784.82 370.64C785.884 370.64 786.706 370.323 787.284 369.688C787.882 369.053 788.18 368.223 788.18 367.196C788.18 366.169 787.882 365.339 787.284 364.704C786.706 364.069 785.884 363.752 784.82 363.752C783.756 363.752 782.926 364.069 782.328 364.704C781.75 365.339 781.46 366.169 781.46 367.196ZM794.854 360.392H798.886V362.24H798.942C799.073 361.979 799.26 361.717 799.502 361.456C799.745 361.195 800.034 360.961 800.37 360.756C800.706 360.551 801.089 360.383 801.518 360.252C801.948 360.121 802.414 360.056 802.918 360.056C803.87 360.056 804.71 360.252 805.438 360.644C806.185 361.036 806.745 361.652 807.118 362.492C807.604 361.615 808.192 360.989 808.882 360.616C809.573 360.243 810.422 360.056 811.43 360.056C812.345 360.056 813.11 360.215 813.726 360.532C814.361 360.831 814.856 361.251 815.21 361.792C815.584 362.315 815.845 362.94 815.994 363.668C816.162 364.377 816.246 365.143 816.246 365.964V374H812.046V366.076C812.046 365.441 811.906 364.9 811.626 364.452C811.365 363.985 810.889 363.752 810.198 363.752C809.713 363.752 809.302 363.836 808.966 364.004C808.649 364.153 808.388 364.368 808.182 364.648C807.996 364.928 807.856 365.255 807.762 365.628C807.688 366.001 807.65 366.393 807.65 366.804V374H803.45V366.804C803.45 366.561 803.441 366.263 803.422 365.908C803.404 365.553 803.338 365.217 803.226 364.9C803.114 364.583 802.928 364.312 802.666 364.088C802.424 363.864 802.06 363.752 801.574 363.752C801.033 363.752 800.594 363.855 800.258 364.06C799.922 364.247 799.661 364.508 799.474 364.844C799.306 365.161 799.194 365.525 799.138 365.936C799.082 366.347 799.054 366.776 799.054 367.224V374H794.854V360.392ZM832.098 371.648C831.426 372.507 830.576 373.169 829.55 373.636C828.523 374.103 827.459 374.336 826.358 374.336C825.312 374.336 824.323 374.168 823.39 373.832C822.475 373.496 821.672 373.02 820.982 372.404C820.31 371.769 819.778 371.013 819.386 370.136C818.994 369.259 818.798 368.279 818.798 367.196C818.798 366.113 818.994 365.133 819.386 364.256C819.778 363.379 820.31 362.632 820.982 362.016C821.672 361.381 822.475 360.896 823.39 360.56C824.323 360.224 825.312 360.056 826.358 360.056C827.328 360.056 828.206 360.224 828.99 360.56C829.792 360.896 830.464 361.381 831.006 362.016C831.566 362.632 831.995 363.379 832.294 364.256C832.592 365.133 832.742 366.113 832.742 367.196V368.512H822.998C823.166 369.315 823.53 369.959 824.09 370.444C824.65 370.911 825.34 371.144 826.162 371.144C826.852 371.144 827.431 370.995 827.898 370.696C828.383 370.379 828.803 369.977 829.158 369.492L832.098 371.648ZM828.542 365.656C828.56 364.947 828.327 364.34 827.842 363.836C827.356 363.332 826.731 363.08 825.966 363.08C825.499 363.08 825.088 363.155 824.734 363.304C824.379 363.453 824.071 363.649 823.81 363.892C823.567 364.116 823.371 364.387 823.222 364.704C823.091 365.003 823.016 365.32 822.998 365.656H828.542Z" fill="white"/>
<rect width="500" height="500" fill="white"/>
<path fill-rule="evenodd" clip-rule="evenodd" d="M192.995 116.998C192.995 123.071 188.071 127.995 181.998 127.995C175.924 127.995 171 123.071 171 116.998C171 110.924 175.924 106 181.998 106C188.071 106 192.995 110.924 192.995 116.998ZM181 135.97V128L190.143 131.2L193.346 132.235C197.989 128.771 200.995 123.236 200.995 116.998C200.995 106.506 192.49 98 181.998 98C171.506 98 163 106.506 163 116.998C163 127.155 170.972 135.451 181 135.97Z" fill="#2F2F2F"/>
<path d="M212.947 116.088C212.947 114.501 213.209 113.064 213.731 111.776C214.273 110.488 215.019 109.396 215.971 108.5C216.923 107.585 218.053 106.885 219.359 106.4C220.666 105.915 222.094 105.672 223.643 105.672C225.193 105.672 226.621 105.915 227.927 106.4C229.234 106.885 230.363 107.585 231.315 108.5C232.267 109.396 233.005 110.488 233.527 111.776C234.069 113.064 234.339 114.501 234.339 116.088C234.339 117.675 234.069 119.112 233.527 120.4C233.005 121.688 232.267 122.789 231.315 123.704C230.363 124.6 229.234 125.291 227.927 125.776C226.621 126.261 225.193 126.504 223.643 126.504C222.094 126.504 220.666 126.261 219.359 125.776C218.053 125.291 216.923 124.6 215.971 123.704C215.019 122.789 214.273 121.688 213.731 120.4C213.209 119.112 212.947 117.675 212.947 116.088ZM217.483 116.088C217.483 117.021 217.623 117.88 217.903 118.664C218.202 119.429 218.622 120.101 219.163 120.68C219.705 121.24 220.349 121.679 221.095 121.996C221.861 122.313 222.71 122.472 223.643 122.472C224.577 122.472 225.417 122.313 226.163 121.996C226.929 121.679 227.582 121.24 228.123 120.68C228.665 120.101 229.075 119.429 229.355 118.664C229.654 117.88 229.803 117.021 229.803 116.088C229.803 115.173 229.654 114.324 229.355 113.54C229.075 112.756 228.665 112.084 228.123 111.524C227.582 110.945 226.929 110.497 226.163 110.18C225.417 109.863 224.577 109.704 223.643 109.704C222.71 109.704 221.861 109.863 221.095 110.18C220.349 110.497 219.705 110.945 219.163 111.524C218.622 112.084 218.202 112.756 217.903 113.54C217.623 114.324 217.483 115.173 217.483 116.088ZM249.88 126H245.848V124.152H245.792C245.643 124.413 245.447 124.675 245.204 124.936C244.98 125.197 244.7 125.431 244.364 125.636C244.028 125.841 243.646 126.009 243.216 126.14C242.787 126.271 242.32 126.336 241.816 126.336C240.752 126.336 239.884 126.177 239.212 125.86C238.559 125.524 238.046 125.067 237.672 124.488C237.318 123.909 237.075 123.228 236.944 122.444C236.832 121.66 236.776 120.811 236.776 119.896V112.392H240.976V119.056C240.976 119.448 240.986 119.859 241.004 120.288C241.042 120.699 241.126 121.081 241.256 121.436C241.406 121.791 241.62 122.08 241.9 122.304C242.199 122.528 242.619 122.64 243.16 122.64C243.702 122.64 244.14 122.547 244.476 122.36C244.812 122.155 245.064 121.893 245.232 121.576C245.419 121.24 245.54 120.867 245.596 120.456C245.652 120.045 245.68 119.616 245.68 119.168V112.392H249.88V126ZM262.122 115.752H258.426V120.288C258.426 120.661 258.445 121.007 258.482 121.324C258.52 121.623 258.604 121.884 258.734 122.108C258.865 122.332 259.061 122.509 259.322 122.64C259.602 122.752 259.966 122.808 260.414 122.808C260.638 122.808 260.928 122.789 261.282 122.752C261.656 122.696 261.936 122.584 262.122 122.416V125.916C261.656 126.084 261.17 126.196 260.666 126.252C260.162 126.308 259.668 126.336 259.182 126.336C258.473 126.336 257.82 126.261 257.222 126.112C256.625 125.963 256.102 125.729 255.654 125.412C255.206 125.076 254.852 124.647 254.59 124.124C254.348 123.601 254.226 122.967 254.226 122.22V115.752H251.538V112.392H254.226V108.36H258.426V112.392H262.122V115.752ZM273.469 116.788C273.263 116.489 272.974 116.247 272.601 116.06C272.227 115.855 271.826 115.752 271.397 115.752C270.333 115.752 269.502 116.069 268.905 116.704C268.326 117.339 268.037 118.169 268.037 119.196C268.037 120.223 268.326 121.053 268.905 121.688C269.502 122.323 270.333 122.64 271.397 122.64C271.863 122.64 272.265 122.537 272.601 122.332C272.937 122.127 273.226 121.884 273.469 121.604L276.241 124.516C275.587 125.188 274.813 125.664 273.917 125.944C273.039 126.205 272.199 126.336 271.397 126.336C270.351 126.336 269.362 126.168 268.429 125.832C267.514 125.496 266.711 125.02 266.021 124.404C265.349 123.769 264.817 123.013 264.425 122.136C264.033 121.259 263.837 120.279 263.837 119.196C263.837 118.113 264.033 117.133 264.425 116.256C264.817 115.379 265.349 114.632 266.021 114.016C266.711 113.381 267.514 112.896 268.429 112.56C269.362 112.224 270.351 112.056 271.397 112.056C272.199 112.056 273.039 112.196 273.917 112.476C274.813 112.737 275.587 113.204 276.241 113.876L273.469 116.788ZM277.26 119.196C277.26 118.113 277.456 117.133 277.848 116.256C278.24 115.379 278.772 114.632 279.444 114.016C280.135 113.381 280.938 112.896 281.852 112.56C282.786 112.224 283.775 112.056 284.82 112.056C285.866 112.056 286.846 112.224 287.76 112.56C288.694 112.896 289.496 113.381 290.168 114.016C290.859 114.632 291.4 115.379 291.792 116.256C292.184 117.133 292.38 118.113 292.38 119.196C292.38 120.279 292.184 121.259 291.792 122.136C291.4 123.013 290.859 123.769 290.168 124.404C289.496 125.02 288.694 125.496 287.76 125.832C286.846 126.168 285.866 126.336 284.82 126.336C283.775 126.336 282.786 126.168 281.852 125.832C280.938 125.496 280.135 125.02 279.444 124.404C278.772 123.769 278.24 123.013 277.848 122.136C277.456 121.259 277.26 120.279 277.26 119.196ZM281.46 119.196C281.46 120.223 281.75 121.053 282.328 121.688C282.926 122.323 283.756 122.64 284.82 122.64C285.884 122.64 286.706 122.323 287.284 121.688C287.882 121.053 288.18 120.223 288.18 119.196C288.18 118.169 287.882 117.339 287.284 116.704C286.706 116.069 285.884 115.752 284.82 115.752C283.756 115.752 282.926 116.069 282.328 116.704C281.75 117.339 281.46 118.169 281.46 119.196ZM294.854 112.392H298.886V114.24H298.942C299.073 113.979 299.26 113.717 299.502 113.456C299.745 113.195 300.034 112.961 300.37 112.756C300.706 112.551 301.089 112.383 301.518 112.252C301.948 112.121 302.414 112.056 302.918 112.056C303.87 112.056 304.71 112.252 305.438 112.644C306.185 113.036 306.745 113.652 307.118 114.492C307.604 113.615 308.192 112.989 308.882 112.616C309.573 112.243 310.422 112.056 311.43 112.056C312.345 112.056 313.11 112.215 313.726 112.532C314.361 112.831 314.856 113.251 315.21 113.792C315.584 114.315 315.845 114.94 315.994 115.668C316.162 116.377 316.246 117.143 316.246 117.964V126H312.046V118.076C312.046 117.441 311.906 116.9 311.626 116.452C311.365 115.985 310.889 115.752 310.198 115.752C309.713 115.752 309.302 115.836 308.966 116.004C308.649 116.153 308.388 116.368 308.182 116.648C307.996 116.928 307.856 117.255 307.762 117.628C307.688 118.001 307.65 118.393 307.65 118.804V126H303.45V118.804C303.45 118.561 303.441 118.263 303.422 117.908C303.404 117.553 303.338 117.217 303.226 116.9C303.114 116.583 302.928 116.312 302.666 116.088C302.424 115.864 302.06 115.752 301.574 115.752C301.033 115.752 300.594 115.855 300.258 116.06C299.922 116.247 299.661 116.508 299.474 116.844C299.306 117.161 299.194 117.525 299.138 117.936C299.082 118.347 299.054 118.776 299.054 119.224V126H294.854V112.392ZM332.098 123.648C331.426 124.507 330.576 125.169 329.55 125.636C328.523 126.103 327.459 126.336 326.358 126.336C325.312 126.336 324.323 126.168 323.39 125.832C322.475 125.496 321.672 125.02 320.982 124.404C320.31 123.769 319.778 123.013 319.386 122.136C318.994 121.259 318.798 120.279 318.798 119.196C318.798 118.113 318.994 117.133 319.386 116.256C319.778 115.379 320.31 114.632 320.982 114.016C321.672 113.381 322.475 112.896 323.39 112.56C324.323 112.224 325.312 112.056 326.358 112.056C327.328 112.056 328.206 112.224 328.99 112.56C329.792 112.896 330.464 113.381 331.006 114.016C331.566 114.632 331.995 115.379 332.294 116.256C332.592 117.133 332.742 118.113 332.742 119.196V120.512H322.998C323.166 121.315 323.53 121.959 324.09 122.444C324.65 122.911 325.34 123.144 326.162 123.144C326.852 123.144 327.431 122.995 327.898 122.696C328.383 122.379 328.803 121.977 329.158 121.492L332.098 123.648ZM328.542 117.656C328.56 116.947 328.327 116.34 327.842 115.836C327.356 115.332 326.731 115.08 325.966 115.08C325.499 115.08 325.088 115.155 324.734 115.304C324.379 115.453 324.071 115.649 323.81 115.892C323.567 116.116 323.371 116.387 323.222 116.704C323.091 117.003 323.016 117.32 322.998 117.656H328.542Z" fill="#2F2F2F"/>
<rect y="230" width="500" height="270" fill="#1F2D3D"/>
<path fill-rule="evenodd" clip-rule="evenodd" d="M192.995 364.998C192.995 371.071 188.071 375.995 181.998 375.995C175.924 375.995 171 371.071 171 364.998C171 358.924 175.924 354 181.998 354C188.071 354 192.995 358.924 192.995 364.998ZM181 383.97V376L190.143 379.2L193.346 380.235C197.989 376.771 200.995 371.236 200.995 364.998C200.995 354.506 192.49 346 181.998 346C171.506 346 163 354.506 163 364.998C163 375.155 170.972 383.451 181 383.97Z" fill="white"/>
<path d="M212.947 364.088C212.947 362.501 213.209 361.064 213.731 359.776C214.273 358.488 215.019 357.396 215.971 356.5C216.923 355.585 218.053 354.885 219.359 354.4C220.666 353.915 222.094 353.672 223.643 353.672C225.193 353.672 226.621 353.915 227.927 354.4C229.234 354.885 230.363 355.585 231.315 356.5C232.267 357.396 233.005 358.488 233.527 359.776C234.069 361.064 234.339 362.501 234.339 364.088C234.339 365.675 234.069 367.112 233.527 368.4C233.005 369.688 232.267 370.789 231.315 371.704C230.363 372.6 229.234 373.291 227.927 373.776C226.621 374.261 225.193 374.504 223.643 374.504C222.094 374.504 220.666 374.261 219.359 373.776C218.053 373.291 216.923 372.6 215.971 371.704C215.019 370.789 214.273 369.688 213.731 368.4C213.209 367.112 212.947 365.675 212.947 364.088ZM217.483 364.088C217.483 365.021 217.623 365.88 217.903 366.664C218.202 367.429 218.622 368.101 219.163 368.68C219.705 369.24 220.349 369.679 221.095 369.996C221.861 370.313 222.71 370.472 223.643 370.472C224.577 370.472 225.417 370.313 226.163 369.996C226.929 369.679 227.582 369.24 228.123 368.68C228.665 368.101 229.075 367.429 229.355 366.664C229.654 365.88 229.803 365.021 229.803 364.088C229.803 363.173 229.654 362.324 229.355 361.54C229.075 360.756 228.665 360.084 228.123 359.524C227.582 358.945 226.929 358.497 226.163 358.18C225.417 357.863 224.577 357.704 223.643 357.704C222.71 357.704 221.861 357.863 221.095 358.18C220.349 358.497 219.705 358.945 219.163 359.524C218.622 360.084 218.202 360.756 217.903 361.54C217.623 362.324 217.483 363.173 217.483 364.088ZM249.88 374H245.848V372.152H245.792C245.643 372.413 245.447 372.675 245.204 372.936C244.98 373.197 244.7 373.431 244.364 373.636C244.028 373.841 243.646 374.009 243.216 374.14C242.787 374.271 242.32 374.336 241.816 374.336C240.752 374.336 239.884 374.177 239.212 373.86C238.559 373.524 238.046 373.067 237.672 372.488C237.318 371.909 237.075 371.228 236.944 370.444C236.832 369.66 236.776 368.811 236.776 367.896V360.392H240.976V367.056C240.976 367.448 240.986 367.859 241.004 368.288C241.042 368.699 241.126 369.081 241.256 369.436C241.406 369.791 241.62 370.08 241.9 370.304C242.199 370.528 242.619 370.64 243.16 370.64C243.702 370.64 244.14 370.547 244.476 370.36C244.812 370.155 245.064 369.893 245.232 369.576C245.419 369.24 245.54 368.867 245.596 368.456C245.652 368.045 245.68 367.616 245.68 367.168V360.392H249.88V374ZM262.122 363.752H258.426V368.288C258.426 368.661 258.445 369.007 258.482 369.324C258.52 369.623 258.604 369.884 258.734 370.108C258.865 370.332 259.061 370.509 259.322 370.64C259.602 370.752 259.966 370.808 260.414 370.808C260.638 370.808 260.928 370.789 261.282 370.752C261.656 370.696 261.936 370.584 262.122 370.416V373.916C261.656 374.084 261.17 374.196 260.666 374.252C260.162 374.308 259.668 374.336 259.182 374.336C258.473 374.336 257.82 374.261 257.222 374.112C256.625 373.963 256.102 373.729 255.654 373.412C255.206 373.076 254.852 372.647 254.59 372.124C254.348 371.601 254.226 370.967 254.226 370.22V363.752H251.538V360.392H254.226V356.36H258.426V360.392H262.122V363.752ZM273.469 364.788C273.263 364.489 272.974 364.247 272.601 364.06C272.227 363.855 271.826 363.752 271.397 363.752C270.333 363.752 269.502 364.069 268.905 364.704C268.326 365.339 268.037 366.169 268.037 367.196C268.037 368.223 268.326 369.053 268.905 369.688C269.502 370.323 270.333 370.64 271.397 370.64C271.863 370.64 272.265 370.537 272.601 370.332C272.937 370.127 273.226 369.884 273.469 369.604L276.241 372.516C275.587 373.188 274.813 373.664 273.917 373.944C273.039 374.205 272.199 374.336 271.397 374.336C270.351 374.336 269.362 374.168 268.429 373.832C267.514 373.496 266.711 373.02 266.021 372.404C265.349 371.769 264.817 371.013 264.425 370.136C264.033 369.259 263.837 368.279 263.837 367.196C263.837 366.113 264.033 365.133 264.425 364.256C264.817 363.379 265.349 362.632 266.021 362.016C266.711 361.381 267.514 360.896 268.429 360.56C269.362 360.224 270.351 360.056 271.397 360.056C272.199 360.056 273.039 360.196 273.917 360.476C274.813 360.737 275.587 361.204 276.241 361.876L273.469 364.788ZM277.26 367.196C277.26 366.113 277.456 365.133 277.848 364.256C278.24 363.379 278.772 362.632 279.444 362.016C280.135 361.381 280.938 360.896 281.852 360.56C282.786 360.224 283.775 360.056 284.82 360.056C285.866 360.056 286.846 360.224 287.76 360.56C288.694 360.896 289.496 361.381 290.168 362.016C290.859 362.632 291.4 363.379 291.792 364.256C292.184 365.133 292.38 366.113 292.38 367.196C292.38 368.279 292.184 369.259 291.792 370.136C291.4 371.013 290.859 371.769 290.168 372.404C289.496 373.02 288.694 373.496 287.76 373.832C286.846 374.168 285.866 374.336 284.82 374.336C283.775 374.336 282.786 374.168 281.852 373.832C280.938 373.496 280.135 373.02 279.444 372.404C278.772 371.769 278.24 371.013 277.848 370.136C277.456 369.259 277.26 368.279 277.26 367.196ZM281.46 367.196C281.46 368.223 281.75 369.053 282.328 369.688C282.926 370.323 283.756 370.64 284.82 370.64C285.884 370.64 286.706 370.323 287.284 369.688C287.882 369.053 288.18 368.223 288.18 367.196C288.18 366.169 287.882 365.339 287.284 364.704C286.706 364.069 285.884 363.752 284.82 363.752C283.756 363.752 282.926 364.069 282.328 364.704C281.75 365.339 281.46 366.169 281.46 367.196ZM294.854 360.392H298.886V362.24H298.942C299.073 361.979 299.26 361.717 299.502 361.456C299.745 361.195 300.034 360.961 300.37 360.756C300.706 360.551 301.089 360.383 301.518 360.252C301.948 360.121 302.414 360.056 302.918 360.056C303.87 360.056 304.71 360.252 305.438 360.644C306.185 361.036 306.745 361.652 307.118 362.492C307.604 361.615 308.192 360.989 308.882 360.616C309.573 360.243 310.422 360.056 311.43 360.056C312.345 360.056 313.11 360.215 313.726 360.532C314.361 360.831 314.856 361.251 315.21 361.792C315.584 362.315 315.845 362.94 315.994 363.668C316.162 364.377 316.246 365.143 316.246 365.964V374H312.046V366.076C312.046 365.441 311.906 364.9 311.626 364.452C311.365 363.985 310.889 363.752 310.198 363.752C309.713 363.752 309.302 363.836 308.966 364.004C308.649 364.153 308.388 364.368 308.182 364.648C307.996 364.928 307.856 365.255 307.762 365.628C307.688 366.001 307.65 366.393 307.65 366.804V374H303.45V366.804C303.45 366.561 303.441 366.263 303.422 365.908C303.404 365.553 303.338 365.217 303.226 364.9C303.114 364.583 302.928 364.312 302.666 364.088C302.424 363.864 302.06 363.752 301.574 363.752C301.033 363.752 300.594 363.855 300.258 364.06C299.922 364.247 299.661 364.508 299.474 364.844C299.306 365.161 299.194 365.525 299.138 365.936C299.082 366.347 299.054 366.776 299.054 367.224V374H294.854V360.392ZM332.098 371.648C331.426 372.507 330.576 373.169 329.55 373.636C328.523 374.103 327.459 374.336 326.358 374.336C325.312 374.336 324.323 374.168 323.39 373.832C322.475 373.496 321.672 373.02 320.982 372.404C320.31 371.769 319.778 371.013 319.386 370.136C318.994 369.259 318.798 368.279 318.798 367.196C318.798 366.113 318.994 365.133 319.386 364.256C319.778 363.379 320.31 362.632 320.982 362.016C321.672 361.381 322.475 360.896 323.39 360.56C324.323 360.224 325.312 360.056 326.358 360.056C327.328 360.056 328.206 360.224 328.99 360.56C329.792 360.896 330.464 361.381 331.006 362.016C331.566 362.632 331.995 363.379 332.294 364.256C332.592 365.133 332.742 366.113 332.742 367.196V368.512H322.998C323.166 369.315 323.53 369.959 324.09 370.444C324.65 370.911 325.34 371.144 326.162 371.144C326.852 371.144 327.431 370.995 327.898 370.696C328.383 370.379 328.803 369.977 329.158 369.492L332.098 371.648ZM328.542 365.656C328.56 364.947 328.327 364.34 327.842 363.836C327.356 363.332 326.731 363.08 325.966 363.08C325.499 363.08 325.088 363.155 324.734 363.304C324.379 363.453 324.071 363.649 323.81 363.892C323.567 364.116 323.371 364.387 323.222 364.704C323.091 365.003 323.016 365.32 322.998 365.656H328.542Z" fill="white"/>
</svg>
